<?xml version="1.0" encoding="UTF-8"?>
<svg width="17px" height="8px" viewBox="0 0 17 8" version="1.1" xmlns="http://www.w3.org/2000/svg" xmlns:xlink="http://www.w3.org/1999/xlink">
    <title>路径</title>
    <g id="移动综管" stroke="none" stroke-width="1" fill="none" fill-rule="evenodd">
        <g id="登录1" transform="translate(-315.000000, -312.000000)" fill="#AEB6E6">
            <path d="M331.893937,312.982011 C332.076352,312.707624 332.015541,312.341761 331.772334,312.128337 C331.49872,311.914914 331.13389,311.975897 330.921069,312.250285 C330.890663,312.280777 327.516029,316.274741 323.502931,316.274741 C319.611457,316.274741 316.084793,312.250285 316.054388,312.219813 C315.841566,311.975897 315.44635,311.945426 315.203123,312.158829 C314.959895,312.372253 314.92951,312.768588 315.142311,313.012503 C315.203123,313.103959 315.932764,313.927141 317.088048,314.8418 L315.537527,316.457672 C315.2943,316.701588 315.324706,317.097923 315.567933,317.311347 C315.628745,317.433294 315.780755,317.494278 315.932764,317.494278 C316.084773,317.494278 316.236783,317.433294 316.358386,317.311347 L318.030511,315.573526 C318.820964,316.122321 319.763426,316.640624 320.797107,317.006467 L320.158663,319.171135 C320.067465,319.506506 320.249881,319.841878 320.584285,319.933333 L320.766701,319.933333 C321.040314,319.933333 321.283541,319.750402 321.344333,319.476014 L321.982776,317.311347 C322.469211,317.402802 322.986051,317.463786 323.502891,317.463786 C324.019731,317.463786 324.536571,317.402802 325.023006,317.311347 L325.661449,319.445522 C325.722261,319.71991 325.995874,319.902841 326.239101,319.902841 C326.299913,319.902841 326.360705,319.902841 326.391111,319.872349 C326.725536,319.780874 326.907951,319.445522 326.816753,319.110151 L326.178309,316.975975 C327.21199,316.610112 328.154452,316.091809 328.944906,315.543034 L330.586624,317.250383 C330.708227,317.372331 330.860237,317.433314 331.012246,317.433314 C331.164256,317.433314 331.316265,317.372331 331.437869,317.250383 C331.681096,317.006467 331.681096,316.640624 331.468275,316.396709 L329.917754,314.780836 C331.164276,313.866178 331.893937,312.982011 331.893937,312.982011 Z" id="路径"></path>
        </g>
    </g>
</svg>