<?xml version="1.0" encoding="UTF-8"?>
<svg width="17px" height="12px" viewBox="0 0 17 12" version="1.1" xmlns="http://www.w3.org/2000/svg" xmlns:xlink="http://www.w3.org/1999/xlink">
    <title>形状</title>
    <g id="移动综管" stroke="none" stroke-width="1" fill="none" fill-rule="evenodd">
        <g id="登录3" transform="translate(-316.000000, -309.000000)" fill="#AEB6E6" fill-rule="nonzero">
            <path d="M326.994589,313.062343 C326.994589,313.629007 326.566209,314.08245 326.028324,314.08245 C325.490897,314.08245 325.054017,313.629026 325.054017,313.062343 C325.054017,312.50454 325.490897,312.050983 326.028324,312.050983 C326.095655,312.050983 326.154486,312.077054 326.221836,312.085935 C325.734645,311.728601 325.138005,311.510389 324.49999,311.510389 C322.836576,311.510389 321.492816,312.922954 321.492816,314.666857 C321.492816,316.401422 322.836576,317.813987 324.49999,317.813987 C326.162967,317.813987 327.50686,316.401422 327.50686,314.666857 C327.50686,313.995394 327.296635,313.36763 326.952319,312.86195 C326.969318,312.93193 326.994589,312.992934 326.994589,313.062343 Z M332.840106,314.36157 C331.437496,311.693668 328.12818,309 324.5,309 C320.871401,309 317.56199,311.693668 316.167899,314.36157 L316,314.666876 L316.167899,314.971782 C317.56199,317.630803 320.871382,320.333333 324.5,320.333333 C328.128199,320.333333 331.437496,317.630784 332.840106,314.971763 L333,314.666838 L332.840106,314.361551 L332.840106,314.36157 Z M324.49999,319.078377 C321.509872,319.078377 318.679039,316.854903 317.385591,314.666876 C318.679039,312.469588 321.509872,310.255395 324.49999,310.255395 C327.489651,310.255395 330.320542,312.469588 331.614065,314.666838 C330.320542,316.854903 327.489651,319.078377 324.500029,319.078377 L324.49999,319.078377 Z" id="形状"></path>
        </g>
    </g>
</svg>